<svg width="28" height="28" viewBox="0 0 28 28" fill="none" xmlns="http://www.w3.org/2000/svg">
<path fill-rule="evenodd" clip-rule="evenodd" d="M16.332 0L25.6654 9.33333V24.7333C25.6654 26.5375 24.2028 28 22.3987 28H5.5987C3.79457 28 2.33203 26.5375 2.33203 24.7333V3.26667C2.33203 1.46254 3.79457 0 5.5987 0H16.332Z" fill="#4DD138"/>
<path fill-rule="evenodd" clip-rule="evenodd" d="M25.668 9.33398H19.7663C17.9622 9.33398 16.3346 7.70646 16.3346 5.90233V0.00065136L25.668 9.33398Z" fill="white" fill-opacity="0.4"/>
<path d="M9.90158 20L13.2056 15.4528V16.5504L10.0584 12.16H11.7048L14.0456 15.408L13.3736 15.4192L15.692 12.16H17.2712L14.1464 16.472V15.4192L17.4728 20H15.7928L13.3288 16.5504H13.9896L11.5592 20H9.90158Z" fill="white"/>
</svg>
