<svg width="28" height="28" viewBox="0 0 28 28" fill="none" xmlns="http://www.w3.org/2000/svg">
<path fill-rule="evenodd" clip-rule="evenodd" d="M16.332 0L25.6654 9.33333V24.7333C25.6654 26.5375 24.2028 28 22.3987 28H5.5987C3.79457 28 2.33203 26.5375 2.33203 24.7333V3.26667C2.33203 1.46254 3.79457 0 5.5987 0H16.332Z" fill="#525357"/>
<path fill-rule="evenodd" clip-rule="evenodd" d="M25.668 9.33398H19.7663C17.9622 9.33398 16.3346 7.70646 16.3346 5.90233V0.00065136L25.668 9.33398Z" fill="white" fill-opacity="0.4"/>
<path fill-rule="evenodd" clip-rule="evenodd" d="M10.0376 9.74121C9.0999 9.74121 8.33984 10.5013 8.33984 11.4389C8.33984 12.3766 9.0999 13.1366 10.0376 13.1366C10.9752 13.1366 11.7353 12.3766 11.7353 11.4389C11.7353 10.5013 10.9752 9.74121 10.0376 9.74121ZM9.47166 11.4389C9.47166 11.1264 9.72505 10.873 10.0376 10.873C10.3501 10.873 10.6035 11.1264 10.6035 11.4389C10.6035 11.7514 10.3501 12.0048 10.0376 12.0048C9.72505 12.0048 9.47166 11.7514 9.47166 11.4389Z" fill="white"/>
<path fill-rule="evenodd" clip-rule="evenodd" d="M15.1949 13.2116L12.8175 16.4778L12.2465 15.3992C11.6677 14.306 10.197 14.1684 9.43656 15.1363L5.68995 19.9046C5.58902 20.033 5.54974 20.1922 5.5683 20.3441C5.5654 20.368 5.56388 20.3925 5.56388 20.4172C5.56388 20.7392 5.81727 21.0003 6.12979 21.0003H10.6506H10.6628H21.9751C22.1847 21.0003 22.377 20.881 22.4752 20.6903C22.5732 20.4995 22.5611 20.2685 22.4434 20.0898L17.9578 13.2787C17.3035 12.2852 15.8942 12.2507 15.1949 13.2114L15.1949 13.2116ZM16.1004 13.9113C16.3335 13.591 16.8032 13.6025 17.0213 13.9337L20.9073 19.8341H11.7888L16.1004 13.9113ZM10.3744 19.8344L12.0712 17.5033L11.253 15.9578C11.0602 15.5934 10.5699 15.5475 10.3164 15.8701L7.20179 19.8344L10.3744 19.8344Z" fill="white"/>
</svg>
