<svg width="125" height="78" viewBox="0 0 125 78" fill="none" xmlns="http://www.w3.org/2000/svg">
<g id="logo">
<g id="Vector">
<path d="M61.7812 69.632C61.7812 69.632 80.0661 52.4332 76.2902 33.7741C75.8563 31.6906 74.7608 23.0126 54.6749 11.6493C68.0057 16.1131 73.0265 18.6812 87.2182 14.2359C89.4216 12.6606 96.6009 11.7043 99.6303 0.0194795C100.039 -0.701133 100.623 18.7281 93.4563 32.3183C93.2495 33.0327 80.7235 55.956 66.5187 66.6134C66.0152 66.9436 61.7812 69.632 61.7812 69.632Z" fill="white"/>
<path d="M123.057 1.83704C123.057 1.83704 103.303 17.4142 105.388 36.3075C105.633 38.4181 105.945 47.1493 124.928 60.1566C112.052 54.5878 105.813 50.7805 91.0335 54.9403C89.7454 55.9878 85.4819 56.2403 79.1126 67.9386C78.6409 68.6215 79.8035 49.231 88.1615 36.3075C88.4316 35.6138 104.164 13.2701 119.268 3.86028C119.799 3.574 123.057 1.83704 123.057 1.83704Z" fill="white"/>
<path d="M0 37.8541C0 35.7875 0.673333 34.0675 2.02 32.6941C3.38 31.3208 5.1 30.6341 7.18 30.6341C9.32667 30.6341 11.0467 31.2542 12.34 32.4942L11.34 33.9742C10.82 33.5075 10.1867 33.1341 9.44 32.8541C8.70667 32.5742 7.98 32.4342 7.26 32.4342C5.66 32.4342 4.38667 32.9475 3.44 33.9742C2.50667 35.0008 2.04 36.2875 2.04 37.8342C2.04 39.3942 2.52 40.7141 3.48 41.7942C4.44 42.8742 5.71333 43.4142 7.3 43.4142C8.08667 43.4142 8.86 43.2542 9.62 42.9342C10.3933 42.6008 11.0667 42.1475 11.64 41.5742L12.7 42.9942C11.2067 44.4875 9.38667 45.2341 7.24 45.2341C5.09333 45.2341 3.34667 44.5342 2 43.1342C0.666667 41.7208 0 39.9608 0 37.8541Z" fill="white"/>
<path d="M13.9648 37.8541C13.9648 35.7875 14.6382 34.0675 15.9848 32.6941C17.3448 31.3208 19.0648 30.6341 21.1448 30.6341C23.2915 30.6341 25.0115 31.2542 26.3048 32.4942L25.3048 33.9742C24.7848 33.5075 24.1515 33.1341 23.4048 32.8541C22.6715 32.5742 21.9448 32.4342 21.2248 32.4342C19.6248 32.4342 18.3515 32.9475 17.4048 33.9742C16.4715 35.0008 16.0048 36.2875 16.0048 37.8342C16.0048 39.3942 16.4848 40.7141 17.4448 41.7942C18.4048 42.8742 19.6782 43.4142 21.2648 43.4142C22.0515 43.4142 22.8248 43.2542 23.5848 42.9342C24.3582 42.6008 25.0315 42.1475 25.6048 41.5742L26.6648 42.9942C25.1715 44.4875 23.3515 45.2341 21.2048 45.2341C19.0582 45.2341 17.3115 44.5342 15.9648 43.1342C14.6315 41.7208 13.9648 39.9608 13.9648 37.8541Z" fill="white"/>
<path d="M29.1608 44.9942V30.8741H36.9408V32.5942H31.1408V44.9942H29.1608Z" fill="white"/>
<path d="M39.0631 44.9942V30.8741H50.1831V44.9942H48.2031V32.5942H41.0431V44.9942H39.0631Z" fill="white"/>
<path d="M53.0269 37.8342C53.0269 35.8075 53.7269 34.1008 55.1269 32.7141C56.5269 31.3275 58.2469 30.6341 60.2869 30.6341C62.3269 30.6341 64.0402 31.3275 65.4269 32.7141C66.8269 34.1008 67.5269 35.8075 67.5269 37.8342C67.5269 39.9142 66.8269 41.6675 65.4269 43.0942C64.0402 44.5208 62.3269 45.2341 60.2869 45.2341C58.2469 45.2341 56.5269 44.5208 55.1269 43.0942C53.7269 41.6675 53.0269 39.9142 53.0269 37.8342ZM55.0669 37.8342C55.0669 39.4075 55.5735 40.7341 56.5869 41.8142C57.6002 42.8808 58.8335 43.4142 60.2869 43.4142C61.7402 43.4142 62.9669 42.8808 63.9669 41.8142C64.9802 40.7341 65.4869 39.4075 65.4869 37.8342C65.4869 36.3142 64.9802 35.0342 63.9669 33.9942C62.9669 32.9542 61.7402 32.4342 60.2869 32.4342C58.8335 32.4342 57.6002 32.9542 56.5869 33.9942C55.5735 35.0342 55.0669 36.3142 55.0669 37.8342Z" fill="white"/>
</g>
</g>
</svg>
