<svg width="28" height="28" viewBox="0 0 28 28" fill="none" xmlns="http://www.w3.org/2000/svg">
<path fill-rule="evenodd" clip-rule="evenodd" d="M16.332 0L25.6654 9.33333V24.7333C25.6654 26.5375 24.2028 28 22.3987 28H5.5987C3.79457 28 2.33203 26.5375 2.33203 24.7333V3.26667C2.33203 1.46254 3.79457 0 5.5987 0H16.332Z" fill="#525357"/>
<path fill-rule="evenodd" clip-rule="evenodd" d="M25.668 9.33398H19.7663C17.9622 9.33398 16.3346 7.70646 16.3346 5.90233V0.00065136L25.668 9.33398Z" fill="white" fill-opacity="0.4"/>
<path d="M18.225 15.6103C18.525 15.7835 18.525 16.2165 18.225 16.3897L10.725 20.7198C10.425 20.893 10.05 20.6765 10.05 20.3301L10.05 11.6699C10.05 11.3235 10.425 11.107 10.725 11.2802L18.225 15.6103Z" stroke="white" stroke-width="1.1"/>
</svg>
