<svg width="28" height="28" viewBox="0 0 28 28" fill="none" xmlns="http://www.w3.org/2000/svg">
<path fill-rule="evenodd" clip-rule="evenodd" d="M16.332 0L25.6654 9.33333V24.7333C25.6654 26.5375 24.2028 28 22.3987 28H5.5987C3.79457 28 2.33203 26.5375 2.33203 24.7333V3.26667C2.33203 1.46254 3.79457 0 5.5987 0H16.332Z" fill="#F8403B"/>
<path fill-rule="evenodd" clip-rule="evenodd" d="M25.668 9.33398H19.7663C17.9622 9.33398 16.3346 7.70646 16.3346 5.90233V0.00065136L25.668 9.33398Z" fill="white" fill-opacity="0.4"/>
<path fill-rule="evenodd" clip-rule="evenodd" d="M13.9076 14.8574C13.6567 15.3773 13.3867 15.904 13.1221 16.4075C12.8416 16.941 12.5002 17.4757 12.1275 17.9875C12.7822 17.8882 13.5042 17.797 14.2949 17.7134C14.8232 17.6576 15.3465 17.6243 15.8538 17.613C15.631 17.3382 15.4116 17.0556 15.1987 16.7696C14.7313 16.142 14.2887 15.4895 13.9075 14.8574L13.9076 14.8574ZM13.3093 13.7788C12.9939 14.4789 12.6098 15.2393 12.221 15.979C11.8141 16.7532 11.2609 17.5397 10.6725 18.2444C9.7587 18.4329 9.02802 18.6457 8.47287 18.8854C7.89819 19.1334 7.43835 19.4407 7.19128 19.8454C6.92074 20.2884 6.95447 20.7619 7.18412 21.1987C7.25481 21.3333 7.36654 21.4476 7.51748 21.5202C7.66223 21.5897 7.81135 21.6056 7.93911 21.599C8.18112 21.5867 8.42438 21.4902 8.63691 21.3799C9.07484 21.1524 9.59426 20.7515 10.1204 20.2624C10.4819 19.9263 10.8588 19.537 11.2286 19.1131C12.0977 18.9482 13.1511 18.7984 14.4062 18.6658C15.2025 18.5816 15.9719 18.5529 16.6747 18.5731C17.1336 19.0799 17.5896 19.5329 18.0159 19.8946C18.4555 20.2677 18.8989 20.575 19.3053 20.7281C19.5102 20.8052 19.7439 20.858 19.9821 20.8302C20.2396 20.8003 20.4674 20.6794 20.6299 20.4733C20.8237 20.2276 20.9568 19.9621 20.9912 19.6807C21.0268 19.3904 20.9527 19.12 20.7959 18.8862C20.5013 18.4473 19.9382 18.1666 19.3303 17.9825C18.7295 17.8007 17.9859 17.6842 17.1609 17.6353C16.777 17.1933 16.3908 16.7125 16.0208 16.2157C15.4004 15.3826 14.8383 14.5213 14.4159 13.7439C14.6239 13.2545 14.7958 12.7932 14.9076 12.3892C14.9853 12.1083 15.0392 11.8374 15.052 11.5927C15.0643 11.3569 15.0416 11.0919 14.9121 10.8631C14.7642 10.6018 14.5083 10.4426 14.1954 10.4079C13.9173 10.3768 13.6192 10.4456 13.3239 10.5578C12.7768 10.766 12.6315 11.268 12.6417 11.7028C12.6521 12.1357 12.8067 12.6487 13.0306 13.1779C13.1124 13.3712 13.2059 13.5722 13.3093 13.7788ZM13.8311 12.478C13.8698 12.3623 13.9041 12.2512 13.9333 12.1452C14.0015 11.8991 14.0379 11.6987 14.0459 11.5453C14.0498 11.4693 14.0463 11.4126 14.0398 11.3724C14.039 11.3676 14.0381 11.3633 14.0374 11.3593C13.9795 11.3628 13.8717 11.3815 13.698 11.4477L13.6969 11.4481C13.6869 11.4518 13.6861 11.4522 13.6796 11.4646C13.6668 11.4898 13.646 11.5541 13.649 11.6813C13.6536 11.8776 13.7125 12.1456 13.8311 12.478ZM18.1658 18.7045C18.3447 18.878 18.519 19.0372 18.6867 19.1796C19.0997 19.5301 19.4367 19.7468 19.6762 19.8371C19.7598 19.8686 19.8121 19.877 19.8391 19.879C19.9483 19.7356 19.9829 19.6333 19.9907 19.5697C19.9978 19.5121 19.9867 19.4613 19.9467 19.4018C19.8478 19.2543 19.5713 19.061 19.0249 18.8957C18.7727 18.8193 18.4841 18.7552 18.1658 18.7045ZM9.44464 19.5506C9.23805 19.618 9.05324 19.6871 8.88935 19.7579C8.38623 19.975 8.15363 20.1772 8.06243 20.3267C8.01507 20.4041 7.99202 20.4882 8.019 20.602C8.05596 20.587 8.1008 20.5666 8.15406 20.5389C8.47379 20.3727 8.91648 20.0416 9.4164 19.5769C9.42581 19.5682 9.43523 19.5594 9.44464 19.5506Z" fill="white"/>
</svg>
