<svg width="20" height="20" viewBox="0 0 20 20" fill="none" xmlns="http://www.w3.org/2000/svg">
<g id="phone">
<rect width="20" height="20" fill="white"/>
<path id="Icon" d="M17.2192 15.6423C17.2192 15.6423 16.2536 16.5906 16.017 16.8686C15.6316 17.28 15.1774 17.4742 14.5821 17.4742C14.5248 17.4742 14.4637 17.4742 14.4065 17.4704C13.273 17.398 12.2197 16.9562 11.4297 16.5792C9.2696 15.5356 7.37284 14.0541 5.79666 12.1764C4.49527 10.6111 3.62513 9.16381 3.04885 7.60989C2.69392 6.66155 2.56416 5.92268 2.62141 5.2257C2.65957 4.78009 2.83131 4.41066 3.14807 4.09454L4.44947 2.7958C4.63647 2.62061 4.83493 2.52539 5.02957 2.52539C5.27 2.52539 5.46464 2.67012 5.58676 2.79199C5.59058 2.7958 5.59439 2.79961 5.59821 2.80342C5.83101 3.02051 6.05236 3.24522 6.28517 3.48516C6.40347 3.60704 6.5256 3.72891 6.64773 3.8546L7.68961 4.89435C8.09415 5.29806 8.09415 5.67131 7.68961 6.07502C7.57893 6.18547 7.47207 6.29592 7.36139 6.40256C7.04082 6.7301 7.29265 6.47878 6.96062 6.77586C6.95299 6.78347 6.94535 6.78728 6.94154 6.7949C6.61333 7.12244 6.67439 7.44236 6.74308 7.65946C6.7469 7.67088 6.75072 7.68231 6.75453 7.69373C7.0255 8.34881 7.40714 8.96581 7.98724 9.70087L7.99105 9.70468C9.04438 10.9996 10.155 12.0089 11.38 12.782C11.5365 12.8811 11.6968 12.9611 11.8494 13.0372C11.9868 13.1058 12.1166 13.1705 12.2273 13.2391C12.2425 13.2467 12.2578 13.2581 12.2731 13.2657C12.4028 13.3305 12.525 13.361 12.6509 13.361C12.9677 13.361 13.1661 13.1629 13.231 13.0982L13.9791 12.3516C14.1088 12.2221 14.3149 12.066 14.5553 12.066C14.792 12.066 14.9866 12.2145 15.1049 12.344C15.1087 12.3478 15.1087 12.3478 15.1125 12.3516L17.2154 14.4502C17.6085 14.8386 17.2192 15.6423 17.2192 15.6423Z" fill="#33373B"/>
</g>
</svg>
