<svg width="28" height="28" viewBox="0 0 28 28" fill="none" xmlns="http://www.w3.org/2000/svg">
<path fill-rule="evenodd" clip-rule="evenodd" d="M16.3324 -0.000162125L25.6658 9.33317V24.7332C25.6658 26.5373 24.2032 27.9998 22.3991 27.9998H5.59909C3.79496 27.9998 2.33242 26.5373 2.33242 24.7332V3.2665C2.33242 1.46237 3.79496 -0.000162125 5.59909 -0.000162125H16.3324Z" fill="#1F92EF"/>
<path fill-rule="evenodd" clip-rule="evenodd" d="M25.6676 9.33363H19.7659C17.9618 9.33363 16.3342 7.7061 16.3342 5.90197V0.000293732L25.6676 9.33363Z" fill="white" fill-opacity="0.4"/>
<path d="M9.9008 20L7.3024 12.16H8.8144L11.1328 19.2496H10.3824L12.7904 12.16H14.1344L16.4752 19.2496H15.7472L18.1216 12.16H19.5104L16.912 20H15.3664L13.2272 13.6048H13.6304L11.4576 20H9.9008Z" fill="white"/>
</svg>
