<svg width="28" height="28" viewBox="0 0 28 28" fill="none" xmlns="http://www.w3.org/2000/svg">
<g id="Group 28571">
<g id="PDF">
<path id="Combined Shape" fill-rule="evenodd" clip-rule="evenodd" d="M16.332 0L25.6654 9.33326V24.7331C25.6654 26.5372 24.2028 27.9998 22.3987 27.9998H5.5987C3.79457 27.9998 2.33203 26.5372 2.33203 24.7331V3.26664C2.33203 1.46252 3.79457 0 5.5987 0H16.332Z" fill="#525357"/>
<path id="Path" fill-rule="evenodd" clip-rule="evenodd" d="M25.668 9.33398H19.7663C17.9622 9.33398 16.3346 7.70647 16.3346 5.90235V0.0007267L25.668 9.33398Z" fill="white" fill-opacity="0.4"/>
</g>
<g id="Group">
<path id="Vector" d="M5.60856 21.5596C5.54973 21.9797 5.78491 22.3996 6.1963 22.3996H10.6043C10.957 22.3996 11.2509 21.9795 11.1921 21.5596L10.2516 16.6596C10.1928 16.3097 9.95774 16.0996 9.66388 16.0996H7.0779C6.78404 16.0996 6.54901 16.3096 6.49017 16.6596L5.60856 21.5596ZM8.37089 18.1996C9.01747 18.1996 9.54636 18.8295 9.54636 19.5996C9.54636 20.3697 9.01747 20.9996 8.37089 20.9996C7.72431 20.9996 7.19541 20.3697 7.19541 19.5996C7.19541 18.8295 7.72431 18.1996 8.37089 18.1996Z" fill="white"/>
<path id="Vector_2" d="M6.60938 13.2998H10.1358V14.6998H6.60938V13.2998Z" fill="white"/>
<path id="Vector_3" d="M8.37109 11.2002H10.1343V12.6002H8.37109V11.2002Z" fill="white"/>
<path id="Vector_4" d="M6.60938 9.7998H8.37259V11.1998H6.60938V9.7998Z" fill="white"/>
<path id="Vector_5" d="M8.37109 8.40039H10.1343V9.80038H8.37109V8.40039Z" fill="white"/>
<path id="Vector_6" d="M6.60938 7H8.37259V8.39999H6.60938V7Z" fill="white"/>
<path id="Vector_7" d="M8.37109 5.59961H10.1343V6.9996H8.37109V5.59961Z" fill="white"/>
<path id="Vector_8" d="M6.60938 4.2002H8.37259V5.60019H6.60938V4.2002Z" fill="white"/>
<path id="Vector_9" d="M8.37109 2.7998H10.1343V4.1998H8.37109V2.7998Z" fill="white"/>
<path id="Vector_10" d="M6.60938 1.40039H8.37259V2.80038H6.60938V1.40039Z" fill="white"/>
<path id="Vector_11" d="M8.37109 0H10.1343V1.39999H8.37109V0Z" fill="white"/>
</g>
</g>
</svg>
